<?xml version="1.0" standalone="no"?>
<!DOCTYPE svg PUBLIC "-//W3C//DTD SVG 20010904//EN"
 "http://www.w3.org/TR/2001/REC-SVG-20010904/DTD/svg10.dtd">
<svg version="1.0" xmlns="http://www.w3.org/2000/svg"
 width="800.000000pt" height="800.000000pt" viewBox="0 0 800.000000 800.000000"
 preserveAspectRatio="xMidYMid meet">

<g transform="translate(0.000000,800.000000) scale(0.100000,-0.100000)"
fill="#000000" stroke="none">
<path d="M5080 7037 c-102 -48 -239 -215 -278 -340 -34 -105 -35 -144 -7 -242
5 -16 1 -21 -15 -22 -11 -1 -18 2 -15 7 9 15 -56 30 -131 30 -91 0 -158 -24
-258 -91 -137 -91 -317 -303 -371 -435 -12 -30 -31 -64 -41 -75 -10 -12 19 4
64 35 115 78 315 177 329 162 2 -2 -30 -55 -71 -117 -133 -203 -225 -394 -272
-564 -32 -113 -43 -312 -24 -395 7 -30 14 -125 15 -210 2 -132 6 -170 29 -253
35 -130 76 -235 128 -327 24 -42 54 -100 66 -130 57 -133 93 -200 148 -275
171 -236 214 -308 249 -419 13 -40 25 -64 30 -56 4 6 10 51 14 100 l6 88 100
-93 c68 -64 95 -95 85 -98 -124 -39 -134 -51 -151 -174 -21 -159 -31 -213 -39
-213 -5 0 -36 -35 -69 -79 -123 -162 -188 -211 -393 -300 -219 -95 -337 -132
-453 -140 -55 -4 -101 -7 -103 -5 -2 1 23 16 55 34 142 80 385 307 422 394 38
87 82 241 103 355 28 157 30 478 4 626 -41 231 -116 400 -270 614 -34 46 -60
88 -58 94 2 6 8 48 13 95 12 96 4 178 -37 360 -58 264 -201 496 -377 612 -85
56 -373 199 -481 238 -271 98 -549 102 -834 11 -52 -17 -92 -32 -90 -35 3 -2
29 4 59 15 279 96 580 97 844 4 101 -36 397 -183 485 -241 118 -77 201 -174
274 -319 107 -213 166 -577 120 -734 -22 -75 -23 -75 -52 -30 -44 65 -186 233
-238 281 -60 56 -159 124 -216 149 -24 10 -106 48 -183 84 -245 115 -398 146
-733 148 -175 1 -211 -2 -325 -25 -148 -30 -359 -98 -467 -149 -68 -32 -143
-82 -268 -179 -78 -60 -167 -162 -204 -235 -20 -39 -59 -109 -88 -157 -87
-145 -150 -329 -150 -442 0 -27 -14 -56 -55 -118 -30 -46 -67 -114 -82 -152
-24 -62 -27 -82 -28 -194 0 -104 4 -138 24 -200 39 -124 108 -250 238 -432
135 -189 193 -292 193 -345 0 -19 -7 -65 -16 -103 -13 -57 -21 -73 -49 -94
-19 -15 -41 -45 -51 -71 -13 -35 -26 -51 -56 -66 -118 -60 -241 -18 -303 103
l-27 53 7 -65 c14 -128 57 -220 128 -272 58 -42 20 -30 -121 41 -153 76 -173
94 -227 207 -37 78 -52 98 -79 111 -33 15 -66 13 -66 -5 0 -5 11 -7 24 -5 41
8 63 -14 109 -110 55 -114 78 -135 246 -219 l126 -63 118 0 117 0 0 -39 c0
-30 3 -37 11 -29 8 8 8 34 -1 96 -25 166 4 308 67 323 58 15 67 -10 82 -216
11 -155 28 -225 76 -328 41 -88 61 -173 51 -226 -5 -26 -23 -55 -55 -90 -26
-28 -65 -76 -86 -106 -22 -30 -42 -57 -46 -60 -8 -6 -26 -181 -34 -340 -4 -63
-13 -171 -20 -240 -20 -180 -34 -325 -45 -486 -5 -77 -14 -161 -19 -187 -6
-34 -5 -47 3 -47 6 0 26 59 43 133 57 233 153 576 183 653 41 102 37 105 -9 9
-22 -44 -40 -77 -40 -72 -3 22 53 230 84 313 20 53 34 98 31 101 -7 8 -56 -92
-83 -172 -32 -93 -41 -138 -59 -275 -12 -94 -101 -443 -103 -405 -1 18 19 239
34 365 8 69 19 217 25 329 7 127 15 210 23 221 19 27 124 109 238 186 l106 72
164 5 c195 5 322 27 404 67 33 16 61 28 62 27 1 -2 -7 -39 -18 -82 -16 -63
-28 -88 -57 -117 -20 -21 -45 -41 -56 -44 -25 -7 -66 -43 -66 -57 0 -15 111
-3 152 17 46 22 128 102 172 168 37 54 41 53 51 -7 14 -84 25 -104 86 -150 32
-25 71 -50 87 -56 22 -7 41 -36 97 -141 73 -137 161 -248 196 -248 12 0 36 26
68 73 28 39 56 80 63 90 12 18 19 15 106 -38 101 -63 132 -94 132 -135 0 -14
-18 -102 -40 -195 -21 -92 -53 -250 -70 -349 -17 -100 -37 -201 -45 -225 -18
-53 -18 -54 -5 -46 25 16 43 79 75 267 18 112 50 271 69 354 20 84 36 170 36
192 0 55 -27 85 -139 152 -50 30 -91 58 -91 62 0 4 34 80 75 170 137 296 128
282 196 293 54 8 100 44 136 103 26 45 32 50 38 33 11 -37 212 -218 321 -290
121 -80 188 -114 289 -146 120 -39 368 -137 407 -162 21 -12 41 -23 44 -23 4
0 21 -11 39 -24 29 -22 33 -32 43 -108 11 -76 25 -358 26 -488 0 -30 -15 -117
-32 -193 -32 -137 -40 -207 -24 -207 5 0 19 61 31 136 12 74 29 147 38 160 14
22 15 42 5 187 -16 226 -24 398 -26 564 -1 78 -5 145 -9 149 -4 4 -7 -19 -8
-52 0 -32 -4 -78 -7 -102 l-7 -44 -40 30 c-26 19 -77 84 -146 188 -126 188
-181 288 -244 444 -26 63 -54 129 -62 147 -22 47 -183 163 -330 237 -112 56
-101 42 15 -18 114 -61 210 -126 260 -179 23 -24 52 -80 93 -183 68 -169 123
-271 251 -462 75 -112 85 -131 61 -119 -27 14 -62 27 -330 123 -67 24 -146 55
-175 70 -151 76 -369 248 -448 352 l-38 51 15 63 c19 79 12 190 -15 251 -30
67 -42 67 -38 2 2 -30 1 -69 -3 -86 -6 -29 -7 -27 -34 40 -22 58 -27 86 -26
152 1 76 3 83 41 140 72 107 134 137 314 149 136 10 236 38 439 122 242 101
319 155 439 313 43 56 62 75 64 62 2 -9 7 -15 12 -12 5 3 22 -14 39 -37 17
-24 46 -55 65 -70 71 -56 255 -149 368 -184 62 -20 166 -56 231 -80 131 -50
256 -84 302 -83 17 0 -20 13 -81 29 -61 15 -156 46 -210 68 -54 21 -142 51
-194 66 -100 27 -284 113 -379 177 -31 21 -72 58 -90 84 l-32 45 15 98 c8 53
19 128 25 165 14 102 35 126 124 142 34 7 37 5 56 -33 14 -28 18 -50 14 -76
-6 -41 -16 -39 -43 12 -13 25 -19 31 -20 18 0 -32 40 -85 113 -148 101 -87
174 -131 290 -177 56 -22 143 -60 192 -86 93 -48 205 -85 313 -106 90 -17 99
-27 106 -129 6 -83 6 -87 -19 -110 -14 -13 -55 -32 -92 -42 -63 -17 -64 -18
-20 -13 26 2 66 14 89 26 l41 21 104 -111 c88 -93 129 -127 267 -220 90 -60
187 -132 217 -159 30 -27 86 -73 124 -101 87 -65 295 -268 295 -287 0 -20 82
-107 151 -160 50 -38 57 -49 63 -88 6 -40 26 -75 26 -46 0 43 -29 96 -74 134
-107 89 -140 122 -153 153 -18 45 -179 206 -293 293 -52 40 -115 92 -140 115
-25 22 -120 92 -212 153 -141 95 -183 129 -264 217 l-97 104 -3 100 c-2 56 -8
110 -14 121 -11 20 -23 24 -190 65 -69 16 -142 43 -216 80 -62 30 -142 66
-178 80 -111 42 -178 80 -265 151 -81 66 -83 69 -78 103 3 20 13 81 21 136 9
55 16 131 16 170 l0 70 75 -75 c42 -41 87 -94 101 -117 52 -87 288 -288 506
-432 l127 -84 -6 -48 c-4 -33 -2 -49 6 -49 6 0 11 18 11 44 0 42 1 44 28 43
15 -1 29 -5 32 -8 11 -15 39 -12 120 14 94 29 425 189 535 257 92 58 266 193
310 242 39 43 84 129 119 228 13 36 53 130 90 210 79 169 119 273 142 367 19
79 34 102 34 54 0 -19 4 -30 10 -26 6 4 10 -13 11 -42 l1 -48 35 75 c67 143
113 270 131 362 l18 93 36 -65 c20 -36 49 -93 63 -127 24 -55 29 -60 42 -47
20 20 69 267 84 418 10 110 6 285 -8 344 -11 47 33 20 137 -85 58 -59 97 -98
88 -87 -10 11 -18 33 -18 48 0 84 -78 311 -169 491 -100 198 -176 311 -278
414 -46 46 -83 85 -83 86 0 1 19 7 43 14 74 22 261 118 302 155 l40 37 -54
-37 -54 -38 -172 0 -171 -1 -95 47 c-117 59 -184 114 -296 248 -190 226 -281
307 -424 375 -160 75 -363 104 -601 86 -153 -12 -305 -40 -403 -73 -137 -46
-297 -141 -398 -237 -66 -63 -64 -68 -26 77 34 129 172 392 214 408 29 12 14
19 -39 20 -34 0 -69 -7 -96 -19z m-86 -248 c-46 -114 -79 -254 -68 -293 3 -12
11 -34 19 -51 7 -16 21 -49 30 -72 10 -23 30 -54 46 -69 16 -15 29 -31 29 -36
0 -4 -24 -8 -52 -8 -65 0 -125 -26 -161 -69 -43 -52 -37 -63 31 -54 31 5 107
8 167 8 93 -1 118 -4 163 -24 28 -13 52 -29 52 -35 0 -7 -18 -20 -39 -30 -49
-21 -97 -91 -107 -152 -6 -42 13 -190 51 -399 8 -44 15 -100 15 -124 0 -24 5
-72 12 -106 15 -82 -1 -143 -45 -175 -30 -23 -30 -23 -65 -4 -69 37 -134 133
-197 293 -29 74 -36 103 -32 137 2 24 1 41 -4 38 -5 -3 -9 -14 -9 -25 0 -13
-6 -19 -17 -17 -29 5 -44 -80 -50 -288 -7 -236 6 -315 72 -450 l45 -90 0 -126
c0 -95 -3 -128 -14 -137 -11 -9 -18 -8 -30 4 -15 15 -16 15 -16 -5 0 -11 -8
-33 -17 -47 -11 -17 -19 -55 -23 -107 l-5 -81 -25 40 c-13 22 -47 93 -75 158
-28 65 -55 118 -60 118 -6 -1 -8 -53 -6 -133 2 -89 0 -129 -7 -124 -6 3 -13
24 -17 46 -10 59 -29 64 -23 6 3 -25 2 -48 -2 -51 -4 -3 -11 -22 -14 -42 -16
-91 -17 -93 -41 -93 -47 0 -117 127 -133 240 -5 36 -9 102 -8 148 0 45 0 82
-1 82 -3 0 -67 -99 -89 -137 -22 -40 -41 -42 -50 -7 -10 40 3 195 26 319 12
61 26 142 31 180 10 65 23 122 35 153 8 17 -40 16 -74 -2 -32 -17 -88 -74
-131 -135 -19 -28 -32 -39 -35 -30 -55 161 -46 333 26 537 31 88 110 260 147
319 26 42 144 129 255 190 49 26 91 53 93 60 2 6 -11 14 -29 18 -18 4 -42 14
-53 21 -11 8 -27 14 -36 14 -9 0 -30 7 -45 15 -42 22 -79 18 -164 -15 -82 -33
-120 -38 -120 -16 0 22 82 127 144 184 160 146 304 198 428 157 29 -10 71 -18
93 -19 l41 -2 -8 50 c-22 140 -21 159 4 232 29 82 84 169 135 214 57 50 59 25
7 -101z m1253 -8 c213 -54 330 -140 562 -413 139 -164 233 -236 376 -289 33
-12 66 -27 74 -34 16 -16 7 -65 -12 -65 -6 -1 -59 -9 -116 -19 l-104 -17 69
-58 c38 -32 98 -72 134 -91 36 -18 92 -53 126 -78 75 -55 99 -64 112 -41 8 15
14 11 38 -27 74 -117 224 -436 224 -478 0 -29 -19 -36 -40 -15 -10 11 -42 64
-70 119 -49 95 -51 98 -46 55 3 -25 8 -151 12 -280 8 -299 -12 -490 -52 -490
-24 0 -72 79 -84 138 -17 83 -64 174 -111 217 l-41 37 -2 171 c-3 155 -6 184
-34 289 -43 166 -45 167 -67 44 -10 -58 -22 -106 -26 -106 -5 0 -9 4 -9 8 0 5
-6 16 -13 26 -11 15 -13 12 -14 -26 -1 -55 -28 -244 -42 -296 -6 -22 -18 -45
-26 -52 -31 -26 -39 4 -40 142 -1 74 -7 155 -15 183 -20 79 -73 185 -124 250
-72 93 -207 226 -225 223 -18 -4 -29 -37 -30 -96 -1 -26 -5 -41 -11 -37 -5 3
-10 -3 -10 -14 0 -45 -28 -17 -58 58 -42 102 -95 156 -238 242 -196 118 -302
154 -459 154 -88 0 -107 -3 -155 -26 -30 -15 -81 -38 -113 -53 l-58 -25 7 22
c18 61 68 131 154 218 84 85 107 102 193 143 54 26 95 51 92 56 -13 22 -119
43 -184 37 -118 -10 -340 -94 -355 -134 -5 -12 -14 -5 -35 24 -34 47 -103 99
-188 142 -67 33 -93 38 -93 19 0 -7 11 -57 24 -110 l23 -97 -33 27 c-35 29
-54 75 -54 131 0 43 44 86 156 153 204 121 428 170 749 164 140 -3 198 -9 262
-25z m-102 -1106 c102 -15 314 -62 333 -74 17 -10 32 -125 32 -236 0 -89 -14
-183 -34 -240 l-8 -20 17 20 c54 65 145 305 145 382 0 18 4 33 9 33 14 0 127
-125 173 -192 55 -81 112 -215 143 -335 32 -123 33 -146 3 -138 -20 5 -20 4 3
-9 21 -12 27 -25 32 -67 7 -60 11 -66 32 -49 19 15 95 167 95 188 0 10 3 12 9
6 15 -14 32 -210 26 -279 -6 -56 -20 -133 -32 -180 -5 -19 -5 -19 14 -2 20 17
20 16 38 -84 31 -178 -8 -334 -173 -686 -38 -81 -85 -188 -103 -237 -39 -102
-70 -142 -200 -251 -132 -112 -220 -166 -468 -287 -233 -114 -301 -136 -380
-121 -40 7 -267 155 -401 261 -182 145 -458 444 -589 640 -59 86 -59 87 -133
114 -71 27 -148 80 -168 118 -7 14 5 10 47 -16 68 -41 81 -43 54 -8 -19 24
-51 112 -51 138 0 6 9 0 20 -14 l20 -25 -9 27 -10 27 67 -36 c73 -39 138 -91
75 -59 -18 9 -33 14 -33 11 0 -8 64 -45 79 -45 8 0 11 7 8 20 -6 23 -9 23 68
5 33 -8 76 -14 95 -14 l35 0 -46 15 c-97 29 -139 112 -139 272 l0 77 21 -35
c28 -47 75 -96 124 -129 42 -29 79 -46 72 -33 -107 199 -122 262 -121 497 0
182 12 293 44 407 l11 38 82 -63 c87 -67 231 -142 336 -176 74 -24 91 -26 69
-8 -23 17 -130 166 -167 230 -17 30 -32 65 -33 78 -2 13 -8 30 -15 37 -16 17
-39 99 -58 206 -24 141 -24 143 48 204 34 29 73 56 86 59 13 3 81 0 151 -7 75
-8 139 -10 156 -5 16 5 34 9 41 10 6 0 19 8 30 17 36 33 276 46 428 23z
m-3377 -596 c119 -14 241 -52 368 -113 97 -47 115 -60 143 -100 17 -26 31 -50
31 -54 0 -5 34 -50 76 -102 109 -135 164 -222 218 -346 26 -60 54 -117 63
-126 8 -9 21 -49 28 -90 l13 -73 0 115 c0 63 -5 135 -10 160 -16 70 -90 217
-157 309 -66 90 -73 108 -39 90 73 -39 191 -202 258 -355 89 -205 137 -274
191 -274 35 0 71 14 92 35 15 14 18 12 40 -32 34 -68 73 -189 92 -285 20 -98
31 -368 20 -491 l-7 -87 -40 -6 c-21 -4 -45 -13 -53 -20 -17 -18 -25 10 -25
96 -1 258 -177 730 -273 730 -18 0 -19 -2 -5 -17 38 -43 130 -275 115 -289 -2
-3 -19 18 -37 46 -38 59 -115 130 -141 130 -16 0 -19 -8 -19 -42 0 -25 -4 -38
-8 -31 -5 7 -7 -125 -5 -295 3 -330 4 -315 -57 -562 -72 -289 -84 -308 -425
-716 -55 -66 -136 -171 -180 -233 -44 -63 -108 -143 -142 -180 -56 -59 -63
-63 -63 -41 0 91 35 216 101 360 40 88 115 196 193 280 165 178 257 306 326
453 40 85 84 227 71 227 -4 0 -22 -19 -39 -42 -17 -24 -55 -70 -85 -103 l-55
-60 20 75 c17 68 19 101 15 335 -5 287 -23 431 -79 645 -17 63 -33 132 -35
153 -6 47 -35 51 -58 8 -19 -37 -21 -73 -11 -185 l8 -88 -68 72 c-62 65 -73
84 -117 194 -69 173 -128 294 -171 350 -21 27 -45 72 -53 100 -17 59 -28 75
-43 60 -14 -14 -14 -178 0 -239 6 -27 14 -72 17 -100 l5 -50 -21 19 c-12 11
-24 17 -27 13 -3 -3 2 -39 11 -79 15 -69 15 -74 -1 -83 -33 -19 -74 -57 -74
-68 0 -6 10 -1 23 11 31 29 77 46 77 28 0 -7 29 -71 65 -142 48 -96 89 -159
157 -244 98 -121 161 -227 156 -260 -3 -18 -11 -16 -108 30 -58 27 -139 57
-180 66 -103 23 -115 30 -211 131 -227 240 -358 513 -351 738 2 67 21 171 49
270 5 17 4 18 -10 7 -12 -10 -16 -10 -19 0 -6 17 -43 -42 -69 -112 -23 -61
-67 -142 -114 -210 -18 -25 -66 -106 -108 -180 -104 -187 -252 -382 -312 -414
-16 -8 -64 -35 -106 -59 l-76 -44 9 41 c31 145 100 288 166 346 51 45 98 58
150 41 21 -7 44 -15 52 -17 8 -3 5 4 -8 15 -55 48 -146 35 -217 -30 -73 -68
-139 -221 -161 -372 -5 -35 -14 -53 -36 -72 -32 -27 -53 -33 -45 -12 3 6 22
82 42 167 20 85 48 200 62 255 39 153 39 155 11 155 -39 0 -146 -71 -209 -138
-44 -47 -74 -93 -113 -175 -51 -105 -116 -286 -116 -325 -1 -38 -38 29 -61
110 -21 73 -24 104 -24 253 0 167 1 172 33 260 18 50 36 108 41 130 9 48 20
70 80 155 25 36 54 81 64 101 31 61 132 164 184 189 26 12 75 43 108 68 76 57
190 111 341 161 209 69 207 70 70 -64 -65 -64 -116 -119 -113 -122 20 -20 179
45 336 136 36 21 113 64 171 95 l105 56 120 -6 c66 -3 157 -10 203 -15z m2443
6 c30 -16 69 -68 69 -92 0 -18 -45 -16 -80 2 -16 8 -38 28 -49 44 l-21 30 22
15 c27 19 23 19 59 1z m-2928 -935 c54 -174 201 -392 386 -575 l61 -59 -28
-13 c-26 -11 -25 -12 13 -6 30 3 44 1 54 -11 11 -13 9 -16 -16 -22 -61 -15
-98 -42 -126 -93 -16 -28 -25 -51 -22 -51 3 0 28 11 55 25 100 51 215 68 275
41 l30 -14 -30 -11 c-123 -49 -228 -232 -210 -365 8 -63 40 -137 71 -167 22
-20 24 -21 30 -4 4 10 2 39 -6 64 -7 25 -15 56 -17 67 -5 23 -16 21 172 40 39
4 57 0 83 -16 l32 -20 -18 -37 c-24 -47 -35 -113 -20 -113 19 0 90 82 111 128
13 30 20 69 20 118 2 83 10 79 27 -16 21 -112 27 -116 58 -37 32 80 26 29 -9
-80 -44 -139 -115 -277 -241 -471 -60 -92 -125 -199 -145 -238 -41 -79 -56
-91 -211 -169 -122 -60 -261 -114 -318 -122 -41 -5 -57 0 -162 50 -64 30 -157
74 -207 97 -175 80 -314 168 -395 249 -112 113 -122 138 -131 345 -12 282 -40
409 -124 575 -24 47 -46 102 -49 121 -7 35 -6 35 58 64 110 48 240 142 329
236 46 49 120 116 166 150 166 123 323 291 387 415 l29 55 9 -32 c4 -18 17
-62 29 -98z m893 -271 c23 -33 24 -42 18 -103 -4 -36 -10 -66 -13 -66 -7 0
-22 41 -71 195 l-29 90 35 -40 c19 -22 46 -56 60 -76z m-2267 -532 c14 -16 53
-45 86 -64 33 -20 94 -60 136 -89 l76 -54 61 -152 c81 -207 119 -330 131 -424
6 -43 19 -106 31 -138 33 -97 24 -180 -28 -238 -36 -42 -59 -9 -37 53 29 82
16 161 -38 225 -20 23 -27 43 -27 73 0 22 -8 62 -18 89 -24 61 -133 232 -149
232 -17 0 -83 85 -112 145 -14 28 -35 70 -48 95 -46 86 -82 171 -103 236 -24
79 -26 111 -3 69 8 -16 27 -43 42 -58z m2109 -136 c8 -5 12 -21 10 -37 -2 -23
-8 -29 -28 -29 -18 0 -26 6 -28 23 -3 22 13 52 27 52 3 0 12 -4 19 -9z m-168
-71 c0 -5 -7 -10 -15 -10 -8 0 -15 5 -15 10 0 6 7 10 15 10 8 0 15 -4 15 -10z
m15 -60 c0 -8 -10 -16 -22 -18 -22 -3 -32 16 -16 32 12 11 38 2 38 -14z m1022
-159 c11 -25 14 -56 11 -103 -7 -85 -39 -142 -116 -204 -111 -88 -371 -210
-330 -154 62 85 158 236 181 286 26 54 34 62 74 77 33 12 50 14 64 7 10 -6 19
-8 19 -6 0 3 -9 10 -20 16 -14 8 -29 7 -56 -5 -21 -8 -39 -13 -42 -11 -9 9 33
80 59 98 35 26 98 46 122 40 10 -3 26 -21 34 -41z m-2151 -739 c87 -52 154
-85 418 -211 104 -49 138 -61 178 -61 l50 0 -56 -46 c-31 -26 -58 -56 -61 -68
-2 -11 -9 -59 -15 -104 -6 -46 -14 -90 -16 -97 -3 -7 -37 -27 -75 -45 -94 -43
-262 -70 -440 -70 l-135 0 -105 -71 c-57 -39 -137 -98 -176 -130 -71 -59 -73
-60 -73 -33 0 29 67 129 136 204 23 25 46 55 53 67 25 49 6 190 -37 263 -23
40 -62 161 -62 195 0 16 21 44 63 83 34 33 78 87 97 118 31 52 35 66 34 124
l-1 65 66 -65 c37 -36 107 -89 157 -118z m1674 96 c-23 -28 -48 -64 -56 -79
l-14 -28 -42 19 c-24 10 -44 23 -45 27 -7 19 65 73 122 92 33 11 63 20 68 21
4 0 -11 -23 -33 -52z m-108 -104 c39 -20 43 -31 43 -109 0 -59 6 -83 37 -154
l38 -84 -21 -46 c-11 -25 -30 -56 -42 -69 -51 -56 -202 -142 -247 -142 -25 0
-67 52 -102 125 -36 77 -36 133 0 198 40 71 166 237 173 229 4 -4 9 -33 11
-65 l5 -59 -41 -26 c-120 -75 -147 -94 -143 -99 8 -8 179 98 215 133 26 26 32
39 31 71 l-1 38 -7 -35 c-16 -82 -37 -79 -46 5 -5 53 -3 71 10 91 17 27 31 26
87 -2z m-2292 -85 l20 -39 -21 0 c-22 0 -78 29 -80 42 -5 26 -1 33 21 38 33 9
37 6 60 -41z m1791 -58 c-20 -71 -30 -195 -18 -208 4 -3 7 -14 7 -24 0 -40 45
-135 83 -177 63 -68 189 -122 284 -122 24 0 43 -1 43 -3 0 -12 -90 -216 -144
-328 -63 -131 -178 -319 -196 -319 -43 0 -223 301 -308 515 -42 105 -102 302
-102 334 0 37 43 59 207 101 59 16 101 29 92 29 -23 1 -243 -55 -266 -68 -16
-9 -19 -3 -29 62 -6 40 -14 79 -18 88 -6 13 15 25 106 63 62 25 149 66 193 91
44 24 81 42 83 41 1 -2 -6 -35 -17 -75z m-371 -144 c0 -7 -7 -22 -15 -33 -19
-25 -19 -78 0 -94 16 -13 21 -80 7 -80 -5 0 -14 -26 -21 -57 -38 -173 -198
-354 -311 -352 l-35 1 30 13 c17 7 48 30 71 52 36 33 44 49 64 128 39 154 49
208 50 258 0 27 5 57 11 68 13 25 82 95 100 102 26 10 49 7 49 -6z m10 -89 c0
-35 -2 -39 -15 -28 -16 13 -19 38 -9 64 10 27 24 7 24 -36z m108 -471 c17 -42
25 -74 19 -70 -7 3 -38 25 -69 47 -54 37 -58 43 -68 95 -6 31 -15 68 -20 84
-6 20 -3 43 13 87 l22 60 36 -113 c20 -61 50 -147 67 -190z"/>
<path d="M5323 5163 c15 -2 37 -2 50 0 12 2 0 4 -28 4 -27 0 -38 -2 -22 -4z"/>
<path d="M6878 4893 c7 -3 16 -2 19 1 4 3 -2 6 -13 5 -11 0 -14 -3 -6 -6z"/>
<path d="M5625 4680 c27 -12 43 -12 25 0 -8 5 -22 9 -30 9 -10 0 -8 -3 5 -9z"/>
<path d="M5324 4655 c-106 -23 -176 -69 -224 -146 -33 -54 -37 -93 -15 -149
13 -34 13 -34 14 -7 1 36 32 95 65 127 l27 24 -16 -37 c-22 -53 -20 -174 5
-239 19 -51 92 -148 111 -148 19 0 8 53 -26 120 -31 61 -33 71 -19 77 27 10
198 -4 237 -21 l38 -15 -16 -36 c-8 -19 -22 -51 -30 -70 -8 -19 -12 -35 -9
-35 4 0 1 -7 -6 -15 -7 -9 -10 -18 -6 -22 12 -12 86 81 106 134 24 64 26 152
5 214 -9 25 -38 72 -65 104 -27 33 -44 62 -39 64 20 6 100 -20 147 -49 26 -16
74 -59 106 -95 32 -36 60 -64 63 -62 8 9 -31 112 -60 160 -36 58 -88 90 -192
117 -90 23 -116 24 -201 5z m9 -197 c14 -22 1 -48 -23 -48 -15 0 -20 7 -20 28
0 44 22 54 43 20z m167 -53 c16 -19 0 -19 -26 0 -16 12 -16 14 -3 15 9 0 22
-7 29 -15z m1 -61 c11 -14 10 -15 -11 -12 -13 1 -25 9 -28 16 -5 17 23 15 39
-4z"/>
<path d="M5671 4666 c10 -9 69 -36 69 -32 0 6 -55 36 -66 36 -4 0 -5 -2 -3 -4z"/>
<path d="M6658 4503 c7 -3 16 -2 19 1 4 3 -2 6 -13 5 -11 0 -14 -3 -6 -6z"/>
<path d="M6608 4493 c6 -2 18 -2 25 0 6 3 1 5 -13 5 -14 0 -19 -2 -12 -5z"/>
<path d="M6533 4475 c-18 -8 -33 -16 -33 -19 0 -3 15 1 33 8 17 7 39 16 47 19
13 5 13 5 0 6 -8 0 -30 -6 -47 -14z"/>
<path d="M6685 4454 c-16 -3 -58 -14 -92 -25 -52 -17 -72 -31 -123 -86 -65
-69 -72 -90 -19 -52 30 21 32 21 25 3 -35 -89 -32 -273 5 -371 9 -24 9 -24 29
-5 18 17 20 24 11 63 -18 75 -14 117 10 124 40 13 149 -17 149 -40 0 -7 -26
-36 -59 -64 -54 -47 -85 -101 -58 -101 29 0 101 47 150 99 58 61 87 128 87
200 0 38 -21 143 -35 174 -7 18 -6 18 31 2 80 -33 121 -96 139 -212 15 -94 50
-38 42 67 -6 93 -34 150 -93 191 -41 28 -59 34 -109 35 -33 1 -73 0 -90 -2z
m-115 -178 c0 -28 -12 -46 -31 -46 -13 0 -19 7 -19 23 0 13 3 27 7 30 12 13
43 7 43 -7z m148 -119 c3 -16 1 -17 -17 -7 -25 13 -28 33 -4 28 10 -2 19 -11
21 -21z m-3 -37 c-3 -5 -10 -10 -16 -10 -5 0 -9 5 -9 10 0 6 7 10 16 10 8 0
12 -4 9 -10z"/>
<path d="M5690 3408 c0 -24 66 -95 104 -114 25 -13 21 -7 -18 27 -27 24 -57
57 -67 73 -13 21 -19 25 -19 14z"/>
<path d="M6090 3249 c-55 -16 -58 -17 -20 -13 25 4 59 12 75 19 41 18 23 16
-55 -6z"/>
<path d="M1838 3533 c7 -3 16 -2 19 1 4 3 -2 6 -13 5 -11 0 -14 -3 -6 -6z"/>
<path d="M1643 3459 c-86 -43 -150 -149 -179 -302 l-17 -87 24 -52 24 -52 7
80 c19 211 119 364 238 364 16 0 30 -3 30 -6 0 -4 -18 -24 -41 -46 -50 -49
-74 -101 -89 -193 -24 -150 15 -252 122 -321 59 -38 64 -28 16 29 -25 28 -53
65 -63 81 -18 28 -18 29 -1 42 22 15 90 27 131 22 23 -2 31 -9 35 -33 4 -17
12 -40 18 -50 10 -19 11 -18 22 10 35 93 39 233 9 315 -11 30 -20 63 -20 73 0
27 -67 115 -100 132 -41 22 -117 19 -166 -6z m211 -201 c13 -21 -2 -51 -27
-56 -18 -4 -33 38 -23 64 7 19 35 15 50 -8z m-122 -83 c0 -5 -5 -11 -11 -13
-6 -2 -11 4 -11 13 0 9 5 15 11 13 6 -2 11 -8 11 -13z m-2 -48 c0 -8 -3 -17
-7 -20 -9 -9 -34 13 -27 24 8 14 34 11 34 -4z"/>
<path d="M2185 2416 l-40 -14 45 6 c180 27 445 -30 464 -100 20 -77 -3 -141
-66 -185 -21 -14 -36 -28 -34 -30 9 -9 64 27 95 62 25 29 31 44 31 81 0 55
-23 107 -56 129 -74 48 -355 81 -439 51z"/>
<path d="M2140 2372 c0 -38 31 -120 60 -160 44 -61 57 -51 15 11 -21 30 -40
76 -47 110 -11 54 -28 78 -28 39z"/>
<path d="M2048 5784 c-39 -21 -35 -28 5 -8 37 19 44 24 31 24 -5 -1 -21 -8
-36 -16z"/>
<path d="M1922 5676 c-204 -216 -331 -415 -428 -674 -41 -106 -26 -93 19 18
113 275 226 449 446 683 30 31 52 57 49 57 -3 0 -42 -38 -86 -84z"/>
<path d="M237 2509 c-23 -14 -56 -85 -57 -120 0 -20 -6 -28 -25 -33 -16 -4
-27 -16 -31 -33 -4 -15 -4 -130 -1 -256 6 -215 8 -232 31 -280 13 -29 40 -69
59 -90 26 -28 36 -50 40 -85 8 -65 45 -162 72 -186 12 -11 60 -32 106 -47 168
-55 222 -78 232 -94 5 -10 10 -59 10 -109 1 -73 -5 -113 -31 -206 -47 -170
-121 -392 -136 -410 -8 -8 -47 -76 -88 -150 -41 -74 -111 -191 -155 -260 -99
-155 -96 -150 -86 -150 4 0 21 21 38 48 16 26 56 88 89 137 32 50 85 137 117
195 33 57 59 102 59 99 0 -8 -84 -253 -124 -363 -38 -105 -41 -116 -27 -116
12 0 94 220 196 525 151 455 179 584 157 718 -5 31 -9 57 -8 57 1 0 47 -9 104
-20 56 -11 115 -20 130 -19 15 1 -7 7 -48 15 -173 32 -486 128 -522 160 -25
23 -59 110 -69 178 -22 142 -36 322 -27 332 6 6 42 -12 72 -36 29 -24 65 -104
81 -181 17 -81 33 -99 85 -97 l35 1 -37 4 c-44 5 -50 14 -67 98 -7 33 -26 88
-43 123 -27 54 -38 67 -81 88 -40 21 -52 23 -59 12 -8 -12 -3 -166 8 -233 l5
-30 -30 34 c-62 70 -64 81 -65 355 -1 235 0 251 17 254 30 6 54 -26 77 -100
40 -133 122 -271 174 -293 17 -8 60 -34 95 -59 36 -25 69 -46 74 -46 15 0
-114 91 -155 110 -65 29 -115 116 -173 299 -13 40 -33 83 -45 96 -19 20 -20
27 -10 66 19 73 55 105 97 86 26 -11 57 -100 74 -210 5 -34 25 -98 45 -142 36
-83 36 -82 159 -161 57 -36 7 14 -58 58 -41 28 -63 51 -73 77 -8 20 -24 54
-34 77 -11 23 -20 54 -20 70 0 17 -7 57 -16 89 -9 33 -20 76 -25 95 -14 59
-66 86 -112 59z"/>
<path d="M5525 2328 c-38 -16 -56 -26 -40 -23 31 7 138 53 120 53 -5 0 -41
-13 -80 -30z"/>
<path d="M5380 2289 c-90 -22 -408 -60 -620 -73 -333 -22 -397 -31 -433 -64
-17 -15 -16 -18 20 -55 21 -22 81 -74 133 -115 117 -94 412 -374 527 -502 124
-137 124 -136 117 -365 l-6 -190 32 -120 c84 -315 82 -300 87 -563 3 -133 8
-242 13 -242 4 0 7 107 6 237 -3 258 -4 265 -92 583 -25 89 -26 107 -25 294 2
271 16 245 -283 539 -127 125 -267 256 -311 290 -44 34 -110 91 -148 126 -102
97 -88 103 323 132 273 19 564 54 680 83 30 8 46 14 35 14 -11 0 -36 -4 -55
-9z"/>
<path d="M3455 2171 c10 -10 139 -61 153 -61 13 1 -23 18 -93 45 -39 14 -65
21 -60 16z"/>
<path d="M3640 2095 c14 -8 30 -14 35 -14 6 0 -1 6 -15 14 -14 8 -29 14 -35
14 -5 0 1 -6 15 -14z"/>
<path d="M4970 1895 c0 -23 27 -82 50 -112 25 -32 26 -20 2 15 -26 39 -45 89
-37 101 3 6 1 11 -4 11 -6 0 -11 -7 -11 -15z"/>
<path d="M5026 1900 c36 -14 64 -59 64 -101 0 -32 -3 -37 -17 -32 -11 4 -14 3
-9 -5 4 -7 14 -12 22 -12 10 0 14 12 14 45 0 35 -6 51 -31 80 -17 19 -38 35
-48 34 -12 0 -10 -3 5 -9z"/>
<path d="M1092 1830 c0 -14 2 -19 5 -12 2 6 2 18 0 25 -3 6 -5 1 -5 -13z"/>
<path d="M1084 1735 c4 -68 21 -134 32 -122 3 3 1 15 -5 26 -7 11 -16 53 -21
93 l-9 73 3 -70z"/>
<path d="M7134 1271 c7 -11 46 -35 46 -28 0 3 -12 12 -26 22 -15 9 -23 12 -20
6z"/>
<path d="M6176 1232 c-16 -4 47 -7 140 -8 178 -1 266 -14 469 -70 114 -32 127
-41 150 -101 10 -26 34 -79 54 -118 35 -70 36 -71 39 -219 3 -130 -7 -284 -24
-366 -5 -23 -4 -24 9 -7 19 22 30 156 31 357 l1 145 -53 115 c-29 63 -58 126
-65 140 -15 31 -123 68 -302 106 -124 26 -386 41 -449 26z"/>
<path d="M7335 1098 c80 -78 152 -157 160 -175 11 -23 16 -58 15 -106 -1 -40
0 -79 3 -87 3 -8 13 -46 21 -84 9 -37 33 -107 52 -155 20 -49 39 -115 44 -155
5 -44 14 -74 25 -85 17 -15 17 -15 10 4 -4 11 -11 47 -15 81 -4 38 -22 94 -48
150 -50 110 -71 190 -78 297 -9 150 -3 138 -147 285 -73 74 -144 143 -159 153
-15 11 38 -44 117 -123z"/>
<path d="M6123 1000 c0 -25 2 -35 4 -22 2 12 2 32 0 45 -2 12 -4 2 -4 -23z"/>
<path d="M6131 931 c-2 -41 49 -251 90 -376 62 -187 143 -311 231 -356 108
-55 244 -56 335 -3 61 35 48 41 -17 7 -45 -23 -66 -27 -129 -27 -188 0 -283
79 -383 319 -48 116 -78 219 -108 369 -10 50 -19 80 -19 67z"/>
<path d="M5422 880 c0 -19 2 -27 5 -17 2 9 2 25 0 35 -3 9 -5 1 -5 -18z"/>
<path d="M7365 865 c-3 -26 -4 -49 -2 -51 3 -3 8 16 12 41 3 26 4 49 2 51 -3
3 -8 -16 -12 -41z"/>
<path d="M5392 780 c-7 -11 -8 -20 -3 -20 9 0 24 30 18 36 -1 2 -8 -6 -15 -16z"/>
<path d="M7352 775 c0 -16 2 -22 5 -12 2 9 2 23 0 30 -3 6 -5 -1 -5 -18z"/>
<path d="M4322 710 c-103 -43 -179 -82 -208 -106 -67 -54 -524 -575 -524 -597
0 -17 24 9 243 261 282 325 309 349 446 403 148 59 253 112 214 108 -5 0 -81
-31 -171 -69z"/>
<path d="M7300 603 c26 -81 76 -250 111 -375 37 -131 69 -228 76 -228 13 0 -3
62 -107 414 -74 250 -102 328 -118 334 -5 1 11 -64 38 -145z"/>
<path d="M7342 720 c0 -14 2 -19 5 -12 2 6 2 18 0 25 -3 6 -5 1 -5 -13z"/>
<path d="M7551 697 c7 -16 85 -90 173 -164 89 -75 185 -159 213 -186 29 -28
56 -47 60 -43 9 9 -21 37 -232 212 -82 69 -167 144 -188 167 -33 36 -36 38
-26 14z"/>
<path d="M7331 664 c0 -11 3 -14 6 -6 3 7 2 16 -1 19 -3 4 -6 -2 -5 -13z"/>
<path d="M3724 501 c-83 -50 -221 -316 -238 -456 -5 -44 -3 -41 14 24 24 88
76 211 122 288 64 106 148 177 148 125 0 -10 -20 -60 -45 -112 -25 -51 -44
-94 -42 -96 2 -2 25 41 51 95 61 128 58 173 -10 132z"/>
<path d="M2862 418 c-28 -31 -72 -127 -72 -159 0 -30 28 -59 57 -59 66 0 139
200 84 230 -29 15 -45 12 -69 -12z m73 -18 c8 -26 -8 -81 -40 -136 -20 -34
-32 -44 -47 -42 -49 7 -41 103 13 172 25 31 65 35 74 6z"/>
<path d="M6925 303 c-33 -35 -62 -67 -65 -70 -3 -3 4 -1 15 5 28 15 122 119
114 126 -2 2 -31 -25 -64 -61z"/>
<path d="M5512 150 c0 -14 2 -19 5 -12 2 6 2 18 0 25 -3 6 -5 1 -5 -13z"/>
<path d="M5496 95 c-3 -8 -20 -24 -38 -35 -23 -14 -27 -20 -15 -20 19 0 67 42
67 60 0 15 -7 12 -14 -5z"/>
</g>
</svg>
